<!DOCTYPE svg PUBLIC "-//W3C//DTD SVG 1.1//EN" "http://www.w3.org/Graphics/SVG/1.1/DTD/svg11.dtd">
<!-- Uploaded to: SVG Repo, www.svgrepo.com, Transformed by: SVG Repo Mixer Tools -->
<svg version="1.1" id="Layer_1" xmlns="http://www.w3.org/2000/svg" xmlns:xlink="http://www.w3.org/1999/xlink" viewBox="0 0 512 512" xml:space="preserve" width="800px" height="800px" fill="#ffffff">
<g id="SVGRepo_bgCarrier" stroke-width="0"/>
<g id="SVGRepo_tracerCarrier" stroke-linecap="round" stroke-linejoin="round"/>
<g id="SVGRepo_iconCarrier"> <polygon style="fill:#ffffff;" points="378.833,0.543 378.833,132.032 240.327,132.032 240.327,245.769 271.673,245.769 271.673,163.379 410.18,163.379 410.18,0.543 "/> <rect y="229.92" style="fill: #96efc7;" width="512" height="281.537"/> <rect x="255.937" y="229.92" style="fill:#baf5ea ;" width="256.063" height="281.537"/> <g> <rect x="47.988" y="281.799" style="fill:#baf5ea;" width="27.429" height="27.429"/> <rect x="96.068" y="281.799" style="fill:#baf5ea;" width="27.429" height="27.429"/> <rect x="144.865" y="281.799" style="fill:#baf5ea;" width="27.429" height="27.429"/> <rect x="192.951" y="281.799" style="fill:#baf5ea;" width="27.429" height="27.429"/> <rect x="242.103" y="281.799" style="fill:#baf5ea;" width="27.429" height="27.429"/> <rect x="290.189" y="281.799" style="fill:#baf5ea;" width="27.429" height="27.429"/> <rect x="338.986" y="281.799" style="fill:#baf5ea;" width="27.429" height="27.429"/> <rect x="387.072" y="281.799" style="fill:#baf5ea;" width="27.429" height="27.429"/> <rect x="436.579" y="281.799" style="fill:#baf5ea;" width="27.429" height="27.429"/> <rect x="47.988" y="432.139" style="fill:#baf5ea;" width="27.429" height="27.429"/> <rect x="96.068" y="432.139" style="fill:#baf5ea;" width="27.429" height="27.429"/> <polygon style="fill:#baf5ea;" points="338.986,432.142 317.616,432.142 290.187,432.142 269.535,432.142 242.106,432.142 225.001,432.142 192.949,432.142 144.868,432.142 144.868,459.571 192.949,459.571 225.001,459.571 242.106,459.571 269.535,459.571 290.187,459.571 317.616,459.571 338.986,459.571 346.209,459.571 366.414,459.571 366.414,432.142 346.209,432.142 "/> <rect x="387.072" y="432.139" style="fill:#baf5ea;" width="27.429" height="27.429"/> <rect x="436.579" y="432.139" style="fill:#baf5ea;" width="27.429" height="27.429"/> <rect x="47.988" y="332.299" style="fill:#baf5ea;" width="48.086" height="27.429"/> <rect x="117.436" y="332.299" style="fill:#baf5ea;" width="27.429" height="27.429"/> <rect x="165.522" y="332.299" style="fill:#baf5ea;" width="27.429" height="27.429"/> <rect x="214.674" y="332.299" style="fill:#baf5ea;" width="27.429" height="27.429"/> <rect x="262.76" y="332.299" style="fill:#baf5ea;" width="27.429" height="27.429"/> <rect x="311.557" y="332.299" style="fill:#baf5ea;" width="27.429" height="27.429"/> <rect x="359.643" y="332.299" style="fill:#baf5ea;" width="27.429" height="27.429"/> <polygon style="fill:#baf5ea;" points="436.583,332.304 409.155,332.304 409.155,359.734 436.583,359.734 464.012,359.734 464.012,332.304 "/> <rect x="47.988" y="382.402" style="fill:#baf5ea;" width="57.198" height="27.429"/> <rect x="117.436" y="382.402" style="fill:#baf5ea;" width="27.429" height="27.429"/> <rect x="165.522" y="382.402" style="fill:#baf5ea;" width="27.429" height="27.429"/> <rect x="214.674" y="382.402" style="fill:#baf5ea;" width="27.429" height="27.429"/> <rect x="262.76" y="382.402" style="fill:#baf5ea;" width="27.429" height="27.429"/> <rect x="311.557" y="382.402" style="fill:#baf5ea;" width="27.429" height="27.429"/> <rect x="359.643" y="382.402" style="fill:#baf5ea;" width="27.429" height="27.429"/> <polygon style="fill:#baf5ea;" points="400.781,382.404 400.781,409.832 432.397,409.832 464.012,409.832 464.012,382.404 432.397,382.404 "/> </g> <g> <rect x="255.937" y="281.81" style="fill: #96efc7;" width="13.594" height="27.429"/> <rect x="290.189" y="281.799" style="fill: #96efc7;" width="27.429" height="27.429"/> <rect x="338.986" y="281.799" style="fill: #96efc7;" width="27.429" height="27.429"/> <rect x="387.072" y="281.799" style="fill: #96efc7;" width="27.429" height="27.429"/> <rect x="436.579" y="281.799" style="fill: #96efc7;" width="27.429" height="27.429"/> <rect x="255.937" y="432.139" style="fill: #96efc7;" width="110.477" height="27.429"/> <rect x="387.072" y="432.139" style="fill: #96efc7;" width="27.429" height="27.429"/> <rect x="436.579" y="432.139" style="fill: #96efc7;" width="27.429" height="27.429"/> <rect x="262.76" y="332.299" style="fill: #96efc7;" width="27.429" height="27.429"/> <rect x="311.557" y="332.299" style="fill: #96efc7;" width="27.429" height="27.429"/> <rect x="359.643" y="332.299" style="fill: #96efc7;" width="27.429" height="27.429"/> <polygon style="fill: #96efc7;" points="436.583,332.304 409.155,332.304 409.155,359.734 436.583,359.734 464.012,359.734 464.012,332.304 "/> <rect x="262.76" y="382.402" style="fill: #96efc7;" width="27.429" height="27.429"/> <rect x="311.557" y="382.402" style="fill: #96efc7;" width="27.429" height="27.429"/> <rect x="359.643" y="382.402" style="fill: #96efc7;" width="27.429" height="27.429"/> <polygon style="fill: #96efc7;" points="400.781,382.404 400.781,409.832 432.397,409.832 464.012,409.832 464.012,382.404 432.397,382.404 "/> </g> </g>
</svg>