<svg xmlns="http://www.w3.org/2000/svg" shape-rendering="geometricPrecision" text-rendering="geometricPrecision" image-rendering="optimizeQuality" fill-rule="evenodd" clip-rule="evenodd" viewBox="0 0 500 511.56"><path d="M117.91 0h201.68c3.93 0 7.44 1.83 9.72 4.67l114.28 123.67c2.21 2.37 3.27 5.4 3.27 8.41l.06 310c0 35.43-29.4 64.81-64.8 64.81H117.91c-35.57 0-64.81-29.24-64.81-64.81V64.8C53.1 29.13 82.23 0 117.91 0zM325.5 37.15v52.94c2.4 31.34 23.57 42.99 52.93 43.5l36.16-.04-89.09-96.4zm96.5 121.3l-43.77-.04c-42.59-.68-74.12-21.97-77.54-66.54l-.09-66.95H117.91c-21.93 0-39.89 17.96-39.89 39.88v381.95c0 21.82 18.07 39.89 39.89 39.89h264.21c21.71 0 39.88-18.15 39.88-39.89v-288.3z" fill-rule="none"/><path d="M28.04 194.61h443.92c15.43 0 28.04 12.66 28.04 28.04v188.54c0 15.37-12.66 28.04-28.04 28.04H28.04C12.67 439.23 0 426.61 0 411.19V222.65c0-15.43 12.62-28.04 28.04-28.04z" fill="#000"/><path fill="#fff" fill-rule="nonzero" d="M88.34 377.38V256.45h62.69c11.61 0 19.9 2.26 24.87 6.78 4.96 4.51 7.44 11.09 7.44 19.73s-1.58 15.32-4.74 20.03c-3.16 4.7-7.38 7.77-12.67 9.19v1.16c15.61 2.71 23.41 13.35 23.41 31.92 0 9.68-2.58 17.45-7.74 23.32-5.16 5.87-13.09 8.8-23.8 8.8H88.34zm53.79-48.17h-15.09v19.73h14.9c5.42 0 8.12-3.29 8.12-9.87 0-6.58-2.64-9.86-7.93-9.86zm-2.9-46.25h-12.19v18h12c4.9 0 7.35-3 7.35-9s-2.39-9-7.16-9zm98.29 94.42H196.7l31.34-120.93h59.79l31.34 120.93h-40.82l-4.45-19.15h-31.93l-4.45 19.15zm19.35-83.78l-7.93 33.86h17.8L259 293.6h-2.13zm154.79-6.19h-28.05v89.97h-38.7v-89.97h-28.06v-30.96h94.81v30.96z"/></svg>