<svg version="1.1" id="Layer_1" xmlns="http://www.w3.org/2000/svg" xmlns:xlink="http://www.w3.org/1999/xlink" x="0px" y="0px" width="100%" viewBox="0 0 987 920" enable-background="new 0 0 987 920" xml:space="preserve">
<path opacity="1.000000" stroke="none" d=" M1.000000,440.000000   C1.000000,293.682770 1.000000,147.365540 1.000000,1.024152   C329.947693,1.024152 658.895386,1.024152 987.921509,1.024152   C987.921509,307.580597 987.921509,614.161255 987.921509,920.870972   C659.122314,920.870972 330.244507,920.870972 1.000000,920.870972   C1.000000,771.638855 1.000000,622.277344 1.210512,472.500122   C1.421023,472.084320 1.849630,472.058533 1.899596,472.517578   C2.610910,497.506134 5.499564,521.808167 10.374344,545.820374   C27.567749,630.511658 65.785042,704.430237 124.858757,767.513916   C161.044296,806.155823 202.729828,837.613892 249.920273,861.556213   C297.006042,885.445496 346.780670,900.863342 399.259705,907.444214   C422.571930,910.367615 445.919250,911.726990 469.503571,910.611267   C351.298889,890.043579 253.185059,834.210205 178.005569,740.802246   C102.404198,646.869995 69.551254,538.629211 79.206306,418.352905   C86.392525,328.831787 118.429169,248.357574 174.095215,177.907913   C249.937592,81.923607 349.089325,24.613243 469.362030,3.293403   C444.989990,2.342879 420.793427,3.607846 396.658539,6.800169   C336.748596,14.724458 280.643036,33.804401 228.423691,64.144020   C158.086700,105.010056 102.445969,160.693253 61.841129,231.180786   C24.635857,295.766876 4.816322,365.459320 1.624300,439.910400   C1.411944,439.883087 1.000000,440.000000 1.000000,440.000000  M147.500214,582.385193   C138.535553,582.385193 129.570892,582.385193 120.522766,582.385193   C156.522415,718.450989 309.936310,898.733398 546.544067,892.004028   C654.260193,888.940491 748.447754,853.237427 827.998657,780.266357   C887.555481,725.635620 932.291443,661.316162 955.364319,582.385193   C685.997070,582.385193 417.248657,582.385193 147.500214,582.385193  M657.499939,331.165894   C756.609680,331.165894 855.719421,331.165894 955.356567,331.165894   C932.216187,251.953308 887.497742,186.996765 827.337585,132.159073   C750.468567,62.090664 659.534119,26.416513 555.826843,21.956255   C305.840515,11.204811 155.975418,198.076263 120.484886,331.165894   C299.207855,331.165894 477.853882,331.165894 657.499939,331.165894  M112.597054,481.375488   C109.639786,481.375488 106.682518,481.375488 102.844376,481.375488   C104.727737,499.118164 106.546135,516.248901 108.375755,533.485229   C395.014984,533.485229 680.717651,533.485229 967.126465,533.485229   C969.007324,516.133484 970.863037,499.013641 972.774963,481.375488   C685.684937,481.375488 399.629181,481.375488 112.597054,481.375488  M967.279663,385.174286   C967.023010,383.588287 966.766418,382.002258 966.510864,380.423157   C680.543335,380.423157 394.976318,380.423157 108.437798,380.423157   C106.581169,397.610626 104.737503,414.678009 102.869164,431.973816   C393.206482,431.973816 682.545837,431.973816 972.822144,431.973816   C971.004517,416.374054 969.236267,401.198303 967.279663,385.174286  z" fill="none"/>
<path opacity="1.000000" stroke="none" d=" M1.000000,440.468658   C1.000000,440.000000 1.411944,439.883087 1.723799,440.373840   C1.973647,451.262573 1.911638,461.660553 1.849630,472.058533   C1.849630,472.058533 1.421023,472.084320 1.210512,472.042175   C1.000000,461.645782 1.000000,451.291534 1.000000,440.468658  z" fill="#000"/>
<path opacity="1.000000" stroke="none" d=" M148.000214,582.385193   C417.248657,582.385193 685.997070,582.385193 955.364319,582.385193   C932.291443,661.316162 887.555481,725.635620 827.998657,780.266357   C748.447754,853.237427 654.260193,888.940491 546.544067,892.004028   C309.936310,898.733398 156.522415,718.450989 120.522766,582.385193   C129.570892,582.385193 138.535553,582.385193 148.000214,582.385193  z" fill="#000"/>
<path fill="#000000" opacity="1.000000" stroke="none" d=" M656.999878,331.165894   C477.853882,331.165894 299.207855,331.165894 120.484886,331.165894   C155.975418,198.076263 305.840515,11.204811 555.826843,21.956255   C659.534119,26.416513 750.468567,62.090664 827.337585,132.159073   C887.497742,186.996765 932.216187,251.953308 955.356567,331.165894   C855.719421,331.165894 756.609680,331.165894 656.999878,331.165894  z"/>
<path opacity="1.000000" stroke="none" d=" M1.899596,472.517578   C1.911638,461.660553 1.973647,451.262573 1.936155,440.401184   C4.816322,365.459320 24.635857,295.766876 61.841129,231.180786   C102.445969,160.693253 158.086700,105.010056 228.423691,64.144020   C280.643036,33.804401 336.748596,14.724458 396.658539,6.800169   C420.793427,3.607846 444.989990,2.342879 469.362030,3.293403   C349.089325,24.613243 249.937592,81.923607 174.095215,177.907913   C118.429169,248.357574 86.392525,328.831787 79.206306,418.352905   C69.551254,538.629211 102.404198,646.869995 178.005569,740.802246   C253.185059,834.210205 351.298889,890.043579 469.503571,910.611267   C445.919250,911.726990 422.571930,910.367615 399.259705,907.444214   C346.780670,900.863342 297.006042,885.445496 249.920273,861.556213   C202.729828,837.613892 161.044296,806.155823 124.858757,767.513916   C65.785042,704.430237 27.567749,630.511658 10.374344,545.820374   C5.499564,521.808167 2.610910,497.506134 1.899596,472.517578  z" fill="#000"/>
<path opacity="1.000000" stroke="none" d=" M113.085251,481.375488   C399.629181,481.375488 685.684937,481.375488 972.774963,481.375488   C970.863037,499.013641 969.007324,516.133484 967.126465,533.485229   C680.717651,533.485229 395.014984,533.485229 108.375755,533.485229   C106.546135,516.248901 104.727737,499.118164 102.844376,481.375488   C106.682518,481.375488 109.639786,481.375488 113.085251,481.375488  z" fill="#000"/>
<path opacity="1.000000" stroke="none" d=" M967.373840,385.598450   C969.236267,401.198303 971.004517,416.374054 972.822144,431.973816   C682.545837,431.973816 393.206482,431.973816 102.869164,431.973816   C104.737503,414.678009 106.581169,397.610626 108.437798,380.423157   C394.976318,380.423157 680.543335,380.423157 966.510864,380.423157   C966.766418,382.002258 967.023010,383.588287 967.373840,385.598450  z" fill="#000"/>
</svg>