<?xml version="1.0" standalone="no"?>
<!DOCTYPE svg PUBLIC "-//W3C//DTD SVG 20010904//EN"
 "http://www.w3.org/TR/2001/REC-SVG-20010904/DTD/svg10.dtd">
<svg version="1.0" xmlns="http://www.w3.org/2000/svg"
 width="615.000000pt" height="738.000000pt" viewBox="0 0 615.000000 738.000000"
 preserveAspectRatio="xMidYMid meet">
<metadata>
Created by potrace 1.10, written by Peter Selinger 2001-2011
</metadata>
<g transform="translate(0.000000,738.000000) scale(0.100000,-0.100000)"
fill="#000000" stroke="none">
<path d="M2105 7270 c-27 -4 -53 -5 -58 -3 -9 6 -139 -13 -237 -34 -144 -30
-281 -91 -450 -202 -108 -70 -328 -302 -386 -406 -75 -134 -130 -264 -157
-370 -41 -158 -49 -228 -44 -376 9 -215 39 -346 117 -505 68 -136 123 -207
279 -355 72 -68 131 -127 131 -130 0 -6 -129 -160 -189 -224 -42 -45 -124
-152 -134 -175 -4 -8 -16 -28 -27 -45 -39 -60 -101 -199 -116 -260 -3 -11 -11
-42 -19 -70 -44 -157 -56 -357 -30 -500 8 -44 15 -91 15 -105 0 -25 60 -221
78 -256 5 -10 20 -41 33 -67 27 -54 31 -62 74 -127 30 -47 107 -136 219 -255
36 -38 65 -76 66 -84 0 -14 -42 -75 -66 -96 -6 -5 -33 -39 -60 -75 -27 -36
-56 -73 -65 -83 -57 -63 -165 -246 -203 -344 -63 -167 -78 -232 -92 -427 -7
-96 9 -291 31 -366 7 -25 15 -56 18 -70 10 -49 50 -155 94 -245 44 -89 47 -94
117 -190 84 -113 246 -271 306 -298 8 -4 29 -16 45 -26 34 -22 155 -83 200
-101 194 -78 441 -110 661 -86 67 8 128 17 135 22 7 4 31 11 54 15 102 19 262
85 360 149 17 11 37 23 45 27 34 15 140 103 216 178 89 88 150 174 204 285 12
25 26 53 31 62 24 45 72 198 92 288 39 184 40 211 44 778 4 478 6 564 19 569
16 6 15 6 99 -41 78 -44 190 -99 240 -118 117 -45 279 -78 387 -78 98 0 333
26 367 41 14 6 43 14 65 19 50 10 113 33 181 66 29 13 55 24 59 24 13 0 211
122 252 156 107 86 245 247 291 339 59 116 81 166 97 220 10 33 25 75 32 93 8
18 14 45 14 60 0 15 7 52 15 82 23 81 23 438 0 540 -25 116 -68 258 -94 307
-24 48 -56 110 -65 128 -25 45 -97 134 -155 188 -76 73 -111 118 -111 144 0
29 25 74 68 124 21 24 53 64 72 89 19 25 38 50 43 55 47 61 80 116 121 200 63
130 71 149 90 215 9 30 22 78 30 105 43 152 41 484 -4 655 -38 140 -93 252
-181 368 -36 48 -68 94 -71 102 -18 46 -241 272 -302 306 -91 51 -142 70 -341
124 -22 6 -103 15 -179 21 -77 5 -143 12 -148 15 -9 6 -220 16 -698 34 -295
10 -1451 11 -1525 0z m853 -1333 l2 -767 -26 -10 c-15 -6 -195 -10 -444 -10
-330 0 -435 3 -497 15 -43 8 -91 15 -106 15 -16 0 -43 6 -60 14 -18 8 -39 17
-47 20 -84 33 -253 190 -335 310 -42 62 -105 186 -105 209 0 6 -7 30 -15 52
-31 88 -16 294 30 400 7 17 16 37 19 45 25 60 132 205 217 292 39 40 158 128
174 128 7 0 26 6 42 14 85 44 104 45 638 43 l510 -2 3 -768z m1527 758 c22 -8
48 -15 57 -15 10 0 48 -14 85 -32 93 -44 251 -201 322 -323 28 -47 51 -91 51
-98 0 -7 7 -22 15 -33 8 -10 15 -28 15 -39 0 -11 7 -38 15 -60 20 -56 20 -266
0 -331 -39 -124 -50 -153 -83 -214 -60 -112 -151 -221 -213 -255 -80 -44 -173
-85 -195 -85 -14 0 -37 -6 -52 -14 -60 -30 -340 -48 -699 -44 -188 2 -345 7
-350 11 -8 9 -17 1512 -9 1534 8 20 985 18 1041 -2z m-1256 -1647 c55 -27 144
-90 237 -168 22 -19 62 -53 89 -75 26 -22 51 -41 56 -43 5 -2 9 -13 9 -25 0
-15 -50 -71 -153 -174 -85 -84 -158 -153 -163 -153 -8 0 -86 110 -104 145 -3
6 -22 36 -43 68 -66 102 -93 204 -83 322 4 62 9 73 36 98 37 33 59 34 119 5z
m-271 -1278 c1 -443 0 -815 -3 -828 -5 -22 -7 -22 -123 -16 -64 3 -176 12
-249 20 -73 8 -165 14 -205 14 -40 1 -104 5 -143 10 -38 6 -92 13 -120 16 -27
3 -75 11 -105 19 -30 8 -91 23 -135 34 -72 18 -110 33 -225 89 -77 38 -250
242 -250 296 0 7 -7 21 -15 32 -8 10 -15 27 -15 36 0 10 -6 32 -14 50 -20 48
-46 194 -46 261 0 78 38 233 71 287 5 8 14 26 20 40 29 69 200 256 294 321 77
54 162 90 234 100 36 5 86 13 111 18 25 5 241 8 480 7 l435 -1 3 -805z m1417
781 c279 -44 510 -197 606 -401 62 -133 83 -233 76 -378 -2 -64 -9 -130 -15
-147 -6 -16 -18 -57 -28 -90 -33 -107 -107 -229 -188 -311 -90 -90 -168 -140
-291 -187 -44 -17 -220 -47 -275 -47 -44 0 -174 27 -218 46 -18 8 -41 14 -50
14 -39 0 -183 91 -261 164 -48 46 -114 126 -148 181 -28 44 -77 152 -84 185
-4 19 -12 53 -18 75 -27 103 -9 277 43 421 72 198 270 385 481 455 79 26 266
36 370 20z m-1015 -1486 c52 -38 66 -70 54 -121 -18 -78 -120 -207 -212 -268
-78 -52 -114 -58 -137 -22 -15 22 -15 30 0 93 38 153 166 353 226 353 12 0 43
-16 69 -35z m-398 -735 c-7 -276 -41 -633 -74 -770 -6 -25 -14 -61 -17 -80 -4
-19 -13 -45 -19 -57 -7 -12 -12 -29 -12 -38 0 -9 -22 -63 -49 -119 -40 -83
-65 -119 -128 -186 -122 -130 -236 -195 -409 -234 -92 -21 -245 -21 -310 -1
-27 9 -65 20 -84 26 -82 25 -138 58 -248 143 -133 105 -239 288 -279 486 -33
167 -26 315 22 425 7 17 16 37 19 45 3 8 15 29 26 45 11 17 24 39 29 50 19 42
148 158 236 212 77 47 180 88 285 112 19 5 55 13 80 19 139 33 229 39 580 38
l355 -1 -3 -115z"/>
</g>
</svg>
