<?xml version="1.0" standalone="no"?>
<!DOCTYPE svg PUBLIC "-//W3C//DTD SVG 20010904//EN"
 "http://www.w3.org/TR/2001/REC-SVG-20010904/DTD/svg10.dtd">
<svg version="1.0" xmlns="http://www.w3.org/2000/svg"
 width="300.000000pt" height="271.000000pt" viewBox="0 0 300.000000 271.000000"
 preserveAspectRatio="xMidYMid meet">
<metadata>
Created by potrace 1.10, written by Peter Selinger 2001-2011
</metadata>
<g transform="translate(0.000000,271.000000) scale(0.050000,-0.050000)"
fill="#000000" stroke="none">
<path d="M2630 5310 c-2493 -458 -2972 -3811 -700 -4910 1890 -915 4061 737
3680 2800 -257 1389 -1626 2358 -2980 2110z m1681 -952 c160 -41 157 -60 -42
-259 l-178 -179 135 -136 c152 -153 152 -164 0 -164 -440 0 -529 616 -106 737
94 26 90 26 191 1z m250 -203 c66 -146 39 -318 -66 -430 l-43 -46 -126 125
-126 125 154 155 c183 184 159 176 207 71z m-791 -402 l60 -26 -50 -26 c-27
-14 -266 -240 -530 -503 l-481 -479 -93 96 -93 95 293 274 c544 508 742 634
894 569z m173 -146 c97 -88 92 -94 -521 -626 l-487 -423 -59 56 -59 56 497
484 c516 503 548 527 629 453z m10 -334 c-73 -174 -428 -601 -688 -827 l-119
-104 -75 77 -74 76 486 430 c522 461 514 455 470 348z m-1417 -617 c-80 -19
-168 -40 -196 -47 -41 -9 -28 10 69 110 l120 121 76 -75 77 -75 -146 -34z
m281 -159 c-26 -7 -73 -14 -106 -15 l-58 -2 57 60 57 60 48 -45 48 -45 -46
-13z m184 -149 l69 -71 -80 -70 c-132 -114 -587 -412 -818 -536 -209 -113
-216 -118 -204 -174 7 -31 18 -85 25 -120 17 -83 -4 -72 -137 73 l-110 120
386 398 386 398 146 25 c241 40 260 37 337 -43z m-1206 -953 l105 -106 -155 6
c-265 11 -266 12 -164 116 107 109 89 110 214 -16z"/>
<path d="M4472 4044 c-7 -11 -7 -34 -1 -51 7 -16 2 -49 -11 -73 -20 -38 -18
-43 13 -37 54 11 83 109 43 149 -19 20 -36 24 -44 12z"/>
</g>
</svg>
