<?xml version="1.0" standalone="no"?>
<!DOCTYPE svg PUBLIC "-//W3C//DTD SVG 20010904//EN"
 "http://www.w3.org/TR/2001/REC-SVG-20010904/DTD/svg10.dtd">
<svg version="1.0" xmlns="http://www.w3.org/2000/svg"
 width="300.000000pt" height="321.000000pt" viewBox="0 0 300.000000 321.000000"
 preserveAspectRatio="xMidYMid meet">
<metadata>
Created by potrace 1.10, written by Peter Selinger 2001-2011
</metadata>
<g transform="translate(0.000000,321.000000) scale(0.050000,-0.050000)"
fill="#000000" stroke="none">
<path d="M2550 6160 c-718 -322 -1598 -735 -1605 -754 -4 -12 176 -127 399
-257 223 -129 510 -295 636 -369 520 -305 837 -480 867 -480 17 0 154 72 304
160 150 88 276 160 279 160 22 0 1310 758 1310 771 0 19 -1884 891 -1915 887
-8 -1 -132 -54 -275 -118z m1058 -418 c404 -186 734 -345 733 -355 0 -15
-1181 -693 -1424 -818 l-94 -48 -736 421 c-405 232 -744 428 -753 436 -18 18
1437 699 1498 701 23 0 372 -151 776 -337z"/>
<path d="M2622 5905 l-147 -72 112 -57 c138 -69 139 -53 -10 -208 -68 -70
-117 -128 -109 -128 8 0 180 69 384 153 203 84 373 148 378 144 5 -5 -54 -80
-130 -167 -76 -87 -136 -160 -133 -164 3 -3 112 40 242 95 307 130 307 131 72
-161 -111 -137 -201 -255 -201 -263 0 -20 215 -137 253 -137 45 0 808 425 801
447 -11 36 -1234 593 -1299 591 -36 0 -131 -33 -213 -73z"/>
<path d="M1945 5586 c-223 -105 -405 -197 -405 -204 1 -7 169 -106 375 -221
206 -115 490 -275 630 -355 304 -174 276 -171 499 -44 l179 103 -60 36 c-34
21 -97 56 -142 78 -100 51 -100 62 -5 178 42 51 102 127 133 169 66 88 96 94
-258 -54 -267 -111 -265 -114 -92 87 78 90 141 167 141 172 0 10 -43 -7 -260
-101 -93 -41 -224 -95 -290 -120 -66 -26 -169 -66 -230 -89 l-110 -43 245 246
c134 135 250 252 256 259 11 12 -158 98 -189 96 -6 0 -194 -87 -417 -193z"/>
<path d="M607 4685 c7 -63 21 -268 33 -455 11 -187 30 -457 40 -600 11 -143
25 -349 33 -458 11 -166 20 -203 55 -234 23 -20 420 -315 882 -656 l840 -620
5 984 c6 961 5 985 -34 1017 -76 62 -1816 1137 -1841 1137 -19 0 -22 -30 -13
-115z m365 -810 c100 -75 173 -210 164 -302 -18 -186 -294 64 -295 269 -1 117
14 121 131 33z m262 -184 c116 -79 204 -271 124 -271 -22 0 -18 -32 13 -108
33 -80 -32 -8 -83 91 -49 98 -51 148 -4 101 37 -37 59 -29 52 19 -3 23 -36 66
-74 94 l-67 52 8 -134 c11 -165 -15 -180 -33 -20 -7 63 -17 140 -23 170 -12
67 -4 68 87 6z m360 -396 c78 -201 90 -265 35 -185 -15 22 -57 70 -93 107 -59
60 -61 66 -21 57 51 -12 55 8 18 94 l-25 59 -24 -83 c-23 -77 -55 -119 -75
-99 -13 13 72 255 90 255 9 0 51 -92 95 -205z m235 -24 c60 -48 19 -62 -58
-20 -166 89 -100 -134 77 -258 21 -15 34 -37 29 -51 -11 -35 -147 74 -183 148
-109 226 -41 318 135 181z m98 -126 c7 -41 13 -104 13 -138 0 -51 19 -80 94
-144 117 -100 101 -131 -22 -42 -79 57 -92 76 -102 157 -6 51 -16 126 -21 167
-5 41 -2 75 8 75 10 0 23 -34 30 -75z m318 -176 c41 -28 75 -59 75 -70 0 -28
-17 -24 -83 23 -41 29 -67 36 -80 23 -14 -14 8 -42 70 -88 50 -37 92 -79 92
-93 1 -28 -13 -23 -104 41 -90 62 -65 -2 38 -99 98 -91 106 -143 12 -73 -209
155 -227 477 -20 336z"/>
<path d="M880 3809 c0 -98 120 -249 198 -249 58 0 22 145 -56 222 -91 92 -142
101 -142 27z"/>
<path d="M4780 4619 c-137 -87 -545 -341 -906 -564 -435 -269 -658 -418 -665
-445 -6 -22 -8 -465 -5 -984 l6 -944 198 144 c264 191 1473 1088 1514 1121 23
20 35 80 44 215 7 103 31 454 53 778 22 325 46 646 52 715 16 161 18 161 -291
-36z m98 -734 c-11 -30 -15 -94 -8 -142 12 -81 10 -86 -29 -73 -32 10 -41 4
-41 -27 0 -23 -10 -47 -23 -55 -17 -10 -19 4 -7 54 10 37 18 109 19 158 1 61
9 88 27 85 14 -3 30 8 37 25 6 16 19 30 29 30 9 0 8 -25 -4 -55z m-138 -156
c0 -137 -91 -286 -143 -234 -52 52 43 325 113 325 22 0 30 -23 30 -91z m-186
-102 c4 -153 -32 -243 -116 -288 -43 -23 -44 -21 -31 54 7 42 13 129 13 192 0
228 128 267 134 42z m-201 -149 c-11 -261 -53 -319 -53 -73 0 157 22 275 50
275 7 0 8 -91 3 -202z m-113 -144 c0 -113 -6 -132 -56 -181 -95 -90 -120 9
-34 135 61 90 62 98 8 81 -47 -15 -22 58 27 78 50 20 55 11 55 -113z m-230
-306 c-29 -26 -61 -48 -72 -48 -26 0 -15 265 12 273 12 4 17 -32 13 -93 -4
-57 2 -100 13 -100 29 0 44 52 44 158 0 148 29 142 36 -8 5 -122 1 -138 -46
-182z m-143 169 c14 -10 14 -22 -1 -40 -28 -34 -39 -159 -18 -193 21 -36 0
-84 -38 -84 -24 0 -30 23 -28 115 4 124 40 288 55 243 5 -15 18 -34 30 -41z
m-143 -163 c-10 -13 -25 -76 -33 -139 -8 -63 -24 -120 -35 -128 -38 -23 1 256
40 294 37 36 60 13 28 -27z m-254 -235 c-57 -294 -98 -315 -125 -63 -22 210
20 284 45 79 l16 -125 28 140 c35 175 47 210 61 173 5 -14 -6 -106 -25 -204z
m110 36 c-5 -80 -18 -145 -29 -145 -18 0 -17 244 2 274 27 44 36 2 27 -129z"/>
<path d="M4653 3727 c-20 -20 -16 -167 5 -167 20 0 41 69 42 135 0 44 -20 58
-47 32z"/>
<path d="M4473 3687 c-19 -20 -16 -87 5 -87 18 0 42 47 42 82 0 21 -27 24 -47
5z"/>
<path d="M4460 3476 c0 -68 26 -58 49 19 10 33 6 45 -18 45 -22 0 -31 -19 -31
-64z"/>
<path d="M4290 1947 c-55 -44 -325 -250 -601 -458 -276 -208 -528 -399 -560
-425 -249 -192 -302 -201 -453 -78 -58 47 -295 229 -526 404 -231 175 -486
371 -566 434 -194 153 -204 152 -204 -30 0 -298 118 -582 340 -819 919 -985
2722 -397 2676 873 l-6 177 -100 -78z"/>
</g>
</svg>
