<svg version="1.1" id="Layer_1" xmlns="http://www.w3.org/2000/svg" xmlns:xlink="http://www.w3.org/1999/xlink" x="0px" y="0px" width="100%" viewBox="0 0 693 689" enable-background="new 0 0 693 689" xml:space="preserve">
<path opacity="1.000000" stroke="none" d=" M366.000000,690.000000   C244.000000,690.000000 122.500000,690.000000 1.000000,690.000000   C1.000000,460.333344 1.000000,230.666672 1.000000,1.000000   C232.000000,1.000000 463.000000,1.000000 694.000000,1.000000   C694.000000,230.666672 694.000000,460.333344 694.000000,690.000000   C584.833313,690.000000 475.666656,690.000000 366.000000,690.000000  M157.499725,446.491455   C166.270187,446.491455 175.040634,446.491455 183.918884,446.491455   C188.464676,406.293243 199.632523,368.518311 216.078064,332.258911   C235.896255,288.563446 262.008789,249.316071 298.669220,217.843582   C351.507996,172.482178 413.678040,152.698486 482.552979,151.889297   C491.050110,151.789474 497.353729,157.793793 497.061127,166.261215   C496.926697,170.151672 495.311676,174.391586 493.211578,177.749832   C477.035156,203.617416 466.788544,231.616623 461.819550,261.670105   C457.157806,289.865387 457.433716,318.085052 461.054901,346.317505   C465.349457,379.799744 473.929810,412.174438 487.099060,443.275604   C487.718964,444.739594 490.146790,446.353271 491.737488,446.358246   C543.402161,446.519348 595.067505,446.466278 646.732483,446.557800   C649.598083,446.562897 650.701538,445.609406 651.561951,442.950073   C667.583862,393.429016 671.813721,342.877930 663.696960,291.539612   C652.878235,223.111267 623.469116,163.362640 574.450623,114.537666   C496.076416,36.472950 401.003235,5.803055 291.670837,21.419231   C233.980865,29.659214 182.423584,53.401756 137.504166,90.558388   C66.646690,149.170532 27.313761,224.732864 19.254784,316.239960   C15.504372,358.824707 20.698534,400.631073 33.774006,441.431244   C35.099144,445.566132 36.911411,446.599548 41.003368,446.583160   C79.501656,446.428802 118.000809,446.491486 157.499725,446.491455  M436.903473,368.658875   C427.758301,305.356049 432.095184,243.728561 460.867340,184.348862   C453.911469,185.299026 448.149170,186.024490 442.406250,186.880005   C373.664215,197.120575 318.201294,229.745056 277.276489,286.049133   C240.845505,336.170593 221.190933,393.130646 211.004166,453.726135   C210.291794,457.963593 210.385056,462.415192 209.127777,466.464172   C207.142319,472.858276 201.545609,475.829865 193.183350,475.831909   C146.518173,475.843384 99.853004,475.837433 53.187828,475.837463   C51.444401,475.837463 49.700974,475.837463 47.722046,475.837463   C91.229599,577.554321 208.191223,676.164490 365.861511,665.926697   C502.546021,657.051636 602.293274,562.618469 637.924927,475.837463   C636.001526,475.837463 634.177856,475.837463 632.354187,475.837463   C582.022461,475.837463 531.690735,475.837555 481.358978,475.837433   C471.156769,475.837433 465.705109,472.222748 461.932800,462.753143   C449.947052,432.665192 441.911163,401.515320 436.903473,368.658875  z" fill="none"/>
<path opacity="1.000000" stroke="none" d=" M156.999725,446.491486   C118.000809,446.491486 79.501656,446.428802 41.003368,446.583160   C36.911411,446.599548 35.099144,445.566132 33.774006,441.431244   C20.698534,400.631073 15.504372,358.824707 19.254784,316.239960   C27.313761,224.732864 66.646690,149.170532 137.504166,90.558388   C182.423584,53.401756 233.980865,29.659214 291.670837,21.419231   C401.003235,5.803055 496.076416,36.472950 574.450623,114.537666   C623.469116,163.362640 652.878235,223.111267 663.696960,291.539612   C671.813721,342.877930 667.583862,393.429016 651.561951,442.950073   C650.701538,445.609406 649.598083,446.562897 646.732483,446.557800   C595.067505,446.466278 543.402161,446.519348 491.737488,446.358246   C490.146790,446.353271 487.718964,444.739594 487.099060,443.275604   C473.929810,412.174438 465.349457,379.799744 461.054901,346.317505   C457.433716,318.085052 457.157806,289.865387 461.819550,261.670105   C466.788544,231.616623 477.035156,203.617416 493.211578,177.749832   C495.311676,174.391586 496.926697,170.151672 497.061127,166.261215   C497.353729,157.793793 491.050110,151.789474 482.552979,151.889297   C413.678040,152.698486 351.507996,172.482178 298.669220,217.843582   C262.008789,249.316071 235.896255,288.563446 216.078064,332.258911   C199.632523,368.518311 188.464676,406.293243 183.918884,446.491455   C175.040634,446.491455 166.270187,446.491455 156.999725,446.491486  z" fill="#000000"/>
<path fill="#000000" opacity="1.000000" stroke="none" d=" M436.945953,369.096863   C441.911163,401.515320 449.947052,432.665192 461.932800,462.753143   C465.705109,472.222748 471.156769,475.837433 481.358978,475.837433   C531.690735,475.837555 582.022461,475.837463 632.354187,475.837463   C634.177856,475.837463 636.001526,475.837463 637.924927,475.837463   C602.293274,562.618469 502.546021,657.051636 365.861511,665.926697   C208.191223,676.164490 91.229599,577.554321 47.722046,475.837463   C49.700974,475.837463 51.444401,475.837463 53.187828,475.837463   C99.853004,475.837433 146.518173,475.843384 193.183350,475.831909   C201.545609,475.829865 207.142319,472.858276 209.127777,466.464172   C210.385056,462.415192 210.291794,457.963593 211.004166,453.726135   C221.190933,393.130646 240.845505,336.170593 277.276489,286.049133   C318.201294,229.745056 373.664215,197.120575 442.406250,186.880005   C448.149170,186.024490 453.911469,185.299026 460.867340,184.348862   C432.095184,243.728561 427.758301,305.356049 436.945953,369.096863  z"/>
</svg>