<?xml version="1.0" standalone="no"?>
<!DOCTYPE svg PUBLIC "-//W3C//DTD SVG 20010904//EN"
 "http://www.w3.org/TR/2001/REC-SVG-20010904/DTD/svg10.dtd">
<svg version="1.0" xmlns="http://www.w3.org/2000/svg"
 width="294.000000pt" height="207.000000pt" viewBox="0 0 294.000000 207.000000"
 preserveAspectRatio="xMidYMid meet">
<metadata>
Created by potrace 1.10, written by Peter Selinger 2001-2011
</metadata>
<g transform="translate(0.000000,207.000000) scale(0.100000,-0.100000)"
fill="#000000" stroke="none">
<path d="M637 2056 c-50 -18 -76 -42 -98 -91 -18 -38 -19 -86 -19 -861 l0
-820 25 -50 c34 -69 86 -101 178 -109 40 -3 412 -5 827 -3 743 3 756 3 795 24
25 13 51 39 70 69 l30 48 3 820 c1 534 -1 832 -8 856 -14 52 -46 90 -94 112
-39 18 -84 19 -856 18 -662 0 -822 -2 -853 -13z m650 -397 c39 -19 79 -49 110
-83 42 -46 59 -77 90 -166 3 -8 11 9 19 37 27 103 111 195 214 234 75 29 202
23 275 -12 67 -31 140 -106 173 -177 23 -49 27 -70 27 -152 0 -78 -5 -111 -29
-182 l-28 -87 22 -46 c67 -139 44 -292 -63 -403 -79 -82 -209 -124 -323 -103
-124 23 -226 116 -264 240 -18 54 -18 55 -25 26 -14 -56 -57 -127 -104 -175
-66 -66 -140 -94 -251 -95 -74 0 -93 4 -144 29 -151 74 -221 216 -197 398 6
43 21 104 34 136 l23 57 -30 65 c-62 133 -31 296 74 394 115 108 259 132 397
65z"/>
<path d="M1082 1443 c-84 -41 -81 -173 3 -209 19 -8 63 -14 99 -14 76 0 80 5
71 100 -8 77 -25 107 -70 126 -44 18 -62 17 -103 -3z"/>
<path d="M1784 1449 c-28 -14 -50 -55 -58 -106 -17 -111 -28 -116 -256 -123
-184 -5 -186 -5 -252 -38 -121 -59 -192 -170 -193 -299 0 -62 3 -75 24 -97 38
-41 90 -52 135 -31 43 21 61 51 72 120 5 34 16 58 34 76 33 34 96 41 295 37
l140 -3 5 -87 c4 -77 8 -91 31 -114 34 -33 94 -42 137 -20 52 27 64 63 60 183
-3 111 -4 114 -63 148 -17 10 -16 14 8 52 41 64 60 135 55 200 -4 48 -10 61
-37 85 -24 22 -41 28 -74 27 -23 0 -51 -5 -63 -10z"/>
</g>
</svg>
