<?xml version="1.0" standalone="no"?>
<!DOCTYPE svg PUBLIC "-//W3C//DTD SVG 20010904//EN"
 "http://www.w3.org/TR/2001/REC-SVG-20010904/DTD/svg10.dtd">
<svg version="1.0" xmlns="http://www.w3.org/2000/svg"
 width="300.000000pt" height="254.000000pt" viewBox="0 0 300.000000 254.000000"
 preserveAspectRatio="xMidYMid meet">
<metadata>
Created by potrace 1.10, written by Peter Selinger 2001-2011
</metadata>
<g transform="translate(0.000000,254.000000) scale(0.050000,-0.050000)"
fill="#000000" stroke="none">
<path d="M2100 4757 c-27 -23 -115 -104 -195 -181 l-145 -140 142 -178 c170
-213 129 -213 357 0 l189 176 -127 158 c-181 225 -163 212 -221 165z"/>
<path d="M1374 3915 c-6 -25 -17 -105 -25 -178 l-13 -134 450 -6 c482 -7 482
-8 464 -80 -11 -45 -30 -50 -326 -95 -1834 -275 -2287 -922 -1324 -1888 l215
-216 -127 -112 c-155 -137 -159 -96 33 -341 l161 -205 418 0 419 0 165 -106
c234 -150 242 -152 96 -15 l-130 122 206 195 207 194 144 1069 144 1069 66 17
c89 23 86 44 41 -294 l-39 -297 56 -72 c32 -40 102 -128 156 -197 l99 -125
663 0 662 0 71 -87 71 -86 -44 -309 -45 -309 -89 -86 -89 -86 -590 13 -590 13
-60 74 c-33 40 -84 100 -113 133 l-54 60 -139 -130 c-163 -153 -164 -132 21
-360 l145 -179 747 -1 746 0 205 190 204 190 55 405 c30 223 60 437 66 476 10
66 -1 86 -152 265 l-163 194 -624 0 c-709 1 -690 -2 -770 98 l-60 74 32 246
c28 213 38 249 73 264 43 17 494 75 1001 128 165 17 325 34 355 37 92 10 118
-39 95 -178 -11 -66 -20 -130 -20 -144 0 -18 49 -25 180 -25 99 0 180 5 180
11 0 6 9 76 21 155 36 254 5 227 286 243 402 24 511 45 241 49 -122 1 -289 8
-370 15 l-148 12 -140 178 -140 177 -750 0 -750 -1 -219 -208 c-135 -128 -240
-212 -275 -219 -66 -13 -65 -19 -28 243 14 101 21 189 16 195 -6 5 -292 10
-635 10 l-625 0 -10 -45z m815 -850 c-5 -30 -64 -460 -130 -955 l-120 -900
-104 -94 c-108 -98 -195 -120 -331 -83 -58 15 -355 385 -432 538 -49 97 -96
307 -70 310 359 41 641 30 762 -30 69 -34 63 -23 -72 146 -199 247 -501 445
-727 474 -119 16 -119 16 -66 102 97 159 459 331 1007 479 304 81 295 81 283
13z m-1069 -1984 c47 -38 48 -40 8 -41 -38 0 -80 36 -149 129 -31 42 14 14
141 -88z"/>
</g>
</svg>
